<?xml version="1.0" standalone="no"?>
<!DOCTYPE svg PUBLIC "-//W3C//DTD SVG 20010904//EN"
 "http://www.w3.org/TR/2001/REC-SVG-20010904/DTD/svg10.dtd">
<svg version="1.0" xmlns="http://www.w3.org/2000/svg"
 width="513.000000pt" height="513.000000pt" viewBox="0 0 513.000000 513.000000"
 preserveAspectRatio="xMidYMid meet">
<metadata>
Created by potrace 1.11, written by Peter Selinger 2001-2013
</metadata>
<g transform="translate(0.000000,513.000000) scale(0.100000,-0.100000)"
fill="#000000" stroke="none">
<path d="M2173 3243 c9 -2 25 -2 35 0 9 3 1 5 -18 5 -19 0 -27 -2 -17 -5z"/>
<path d="M3408 3243 c6 -2 18 -2 25 0 6 3 1 5 -13 5 -14 0 -19 -2 -12 -5z"/>
<path d="M2250 3188 c0 -36 4 -48 15 -48 20 0 20 50 0 76 -13 18 -14 15 -15
-28z"/>
<path d="M3510 3165 c0 -20 5 -25 27 -25 l26 0 -23 25 c-13 14 -25 25 -27 25
-2 0 -3 -11 -3 -25z"/>
<path d="M2003 3088 c-23 -45 -28 -69 -31 -155 l-4 -103 36 0 36 0 0 -55 0
-55 50 0 50 0 0 -50 c0 -27 5 -50 10 -50 6 0 10 61 10 163 0 152 2 167 24 210
l23 47 -28 0 c-28 0 -29 2 -29 50 l0 50 -60 0 -60 0 -27 -52z"/>
<path d="M3320 3131 c0 -5 18 -31 41 -57 73 -87 79 -108 79 -291 l0 -163 35 0
35 0 0 -50 0 -50 -35 0 -35 0 0 -167 c0 -190 -6 -210 -79 -297 -23 -26 -41
-52 -41 -57 0 -5 20 -9 45 -9 l45 0 0 50 0 50 50 0 50 0 0 55 0 55 54 0 53 0
7 77 c3 42 6 171 6 288 0 117 -3 246 -6 288 l-7 77 -53 0 -54 0 0 55 0 55 -50
0 -50 0 0 50 0 50 -45 0 c-25 0 -45 -4 -45 -9z"/>
<path d="M1355 3099 c-53 -10 -91 -25 -126 -50 -25 -18 -29 -27 -29 -70 l0
-49 50 0 50 0 0 -41 0 -41 35 30 c56 50 144 55 203 13 16 -11 43 -47 61 -81
41 -76 67 -94 124 -87 48 7 87 43 87 83 0 21 -4 24 -40 24 l-40 0 0 50 0 50
-55 0 -55 0 0 55 0 55 -50 0 c-49 0 -50 1 -50 29 0 28 -3 30 -42 35 -54 6 -73
5 -123 -5z"/>
<path d="M2473 3080 c-32 -19 -44 -40 -23 -40 6 0 10 -25 10 -55 l0 -55 50 0
50 0 0 -50 0 -50 40 0 40 0 0 40 0 40 108 0 c139 0 184 -19 222 -95 24 -48 25
-57 25 -250 0 -193 -1 -202 -25 -250 -38 -76 -83 -95 -222 -95 l-108 0 0 40 0
40 -40 0 -40 0 0 -50 0 -50 -50 0 -50 0 0 -55 c0 -30 -4 -55 -10 -55 -21 0 -9
-21 23 -40 28 -17 50 -20 170 -20 l137 0 0 30 c0 29 1 30 50 30 l50 0 0 55 0
55 55 0 55 0 0 50 0 50 50 0 50 0 0 55 0 55 55 0 55 0 0 155 0 155 -55 0 -55
0 0 55 0 55 -50 0 -50 0 0 50 0 50 -55 0 -55 0 0 55 0 55 -50 0 c-49 0 -50 1
-50 30 l0 30 -137 0 c-120 0 -142 -3 -170 -20z"/>
<path d="M2980 3055 c0 -10 10 -15 28 -15 26 1 26 1 8 15 -25 19 -36 19 -36 0z"/>
<path d="M3090 2968 c0 -34 3 -38 25 -38 31 0 31 7 0 45 l-25 30 0 -37z"/>
<path d="M1075 2835 c-17 -51 -19 -90 -19 -270 0 -180 2 -219 19 -270 18 -56
20 -58 23 -27 3 31 4 32 53 32 l49 0 0 55 0 55 33 0 32 0 0 155 0 155 -32 0
-33 0 0 55 0 55 -49 0 c-49 0 -50 1 -53 33 -3 30 -5 28 -23 -28z"/>
<path d="M2430 2565 c0 -229 2 -265 15 -265 12 0 15 13 15 55 l0 55 55 0 55 0
0 50 0 50 35 0 35 0 0 55 0 55 -35 0 -35 0 0 50 0 50 -55 0 -55 0 0 55 c0 42
-3 55 -15 55 -13 0 -15 -36 -15 -265z"/>
<path d="M4030 2645 c0 -21 5 -25 30 -25 36 0 38 13 8 34 -31 22 -38 20 -38
-9z"/>
<path d="M1970 2565 l0 -55 35 0 35 0 0 55 0 55 -35 0 -35 0 0 -55z"/>
<path d="M3860 2600 c-6 -12 -10 -35 -8 -53 3 -29 6 -32 41 -35 l37 -3 0 55
c0 55 0 56 -30 56 -19 0 -33 -7 -40 -20z"/>
<path d="M2140 2465 l0 -55 -50 0 -50 0 0 -55 0 -55 -36 0 -36 0 4 -102 c3
-87 8 -111 31 -155 l27 -53 60 0 60 0 0 50 c0 48 1 50 29 50 l28 0 -23 47
c-22 43 -24 58 -24 215 0 105 -4 168 -10 168 -5 0 -10 -25 -10 -55z"/>
<path d="M4030 2480 c0 -46 11 -50 45 -15 36 35 33 55 -10 55 -34 0 -35 -1
-35 -40z"/>
<path d="M1653 2395 c-12 -8 -37 -43 -54 -76 -18 -33 -45 -69 -61 -80 -59 -42
-147 -37 -203 13 l-35 30 0 -41 0 -41 -50 0 -50 0 0 -49 c0 -43 4 -52 29 -71
59 -42 183 -68 257 -54 29 5 34 10 34 35 0 28 2 29 50 29 l50 0 0 55 0 55 55
0 55 0 0 50 0 50 40 0 c36 0 40 3 40 24 0 14 -10 37 -23 51 -29 34 -100 45
-134 20z"/>
<path d="M3915 2266 c-15 -15 -41 -79 -76 -184 -47 -146 -51 -163 -39 -191 12
-30 30 -42 30 -21 0 6 23 10 50 10 l50 0 0 55 0 55 43 0 44 0 17 58 c46 150
47 156 35 185 -24 56 -111 76 -154 33z"/>
<path d="M3090 2163 l0 -38 25 30 c31 38 31 45 0 45 -22 0 -25 -4 -25 -37z"/>
<path d="M2980 2075 c0 -19 11 -19 36 0 18 14 18 14 -8 15 -18 0 -28 -5 -28
-15z"/>
<path d="M2250 1943 c1 -44 2 -47 15 -29 20 26 20 76 0 76 -11 0 -15 -12 -15
-47z"/>
<path d="M3510 1963 l0 -26 25 23 c14 13 25 25 25 27 0 2 -11 3 -25 3 -20 0
-25 -5 -25 -27z"/>
<path d="M2173 1883 c9 -2 25 -2 35 0 9 3 1 5 -18 5 -19 0 -27 -2 -17 -5z"/>
<path d="M3408 1883 c6 -2 18 -2 25 0 6 3 1 5 -13 5 -14 0 -19 -2 -12 -5z"/>
</g>
</svg>
